<svg width="204" height="56" viewBox="0 0 204 56" fill="none" xmlns="http://www.w3.org/2000/svg">
<g clip-path="url(#clip0)">
<path d="M58.3864 0H2.40436C1.07658 0 0 1.07658 0 2.40436C0 3.73214 1.07658 4.80872 2.40436 4.80872H58.3864C59.7142 4.80872 60.7908 3.73214 60.7908 2.40436C60.7908 1.07658 59.7142 0 58.3864 0Z" fill="black"/>
<path d="M58.3864 9.38419H21.101C19.7732 9.38419 18.6966 10.4608 18.6966 11.7885C18.6966 13.1163 19.7732 14.1929 21.101 14.1929H58.3685C59.6963 14.1929 60.7728 13.1163 60.7728 11.7885C60.7908 10.4608 59.7142 9.38419 58.3864 9.38419Z" fill="black"/>
<path d="M58.3865 18.1583H47.7283C46.4006 18.1583 45.324 19.2348 45.324 20.5626C45.324 21.8904 46.4006 22.967 47.7283 22.967H58.3685C59.6963 22.967 60.7729 21.8904 60.7729 20.5626C60.7908 19.2348 59.7142 18.1583 58.3865 18.1583Z" fill="#EC6527"/>
<path d="M13.0445 26.9324H2.40436C1.07658 26.9324 0 28.009 0 29.3368C0 30.6645 1.07658 31.7411 2.40436 31.7411H13.0445C14.3723 31.7411 15.4489 30.6645 15.4489 29.3368C15.4668 28.009 14.3903 26.9324 13.0445 26.9324Z" fill="#EC6527"/>
<path d="M13.0445 9.07913H2.40436C1.07658 9.07913 0 10.1557 0 11.4835C0 12.8113 1.07658 13.8878 2.40436 13.8878H13.0445C14.3723 13.8878 15.4489 12.8113 15.4489 11.4835C15.4668 10.1557 14.3903 9.07913 13.0445 9.07913Z" fill="#EC6527"/>
<path d="M39.5642 18.1583H2.40436C1.07658 18.1583 0 19.2348 0 20.5626C0 21.8904 1.07658 22.967 2.40436 22.967H39.5642C40.892 22.967 41.9686 21.8904 41.9686 20.5626C41.9686 19.2348 40.892 18.1583 39.5642 18.1583Z" fill="black"/>
<path d="M58.3864 26.9324H21.101C19.7732 26.9324 18.6966 28.009 18.6966 29.3368C18.6966 30.6645 19.7732 31.7411 21.101 31.7411H58.3685C59.6963 31.7411 60.7728 30.6645 60.7728 29.3368C60.7908 28.009 59.7142 26.9324 58.3864 26.9324Z" fill="black"/>
<path d="M58.3864 35.7065H2.40436C1.07658 35.7065 0 36.7831 0 38.1109C0 39.4387 1.07658 40.5152 2.40436 40.5152H58.3864C59.7142 40.5152 60.7908 39.4387 60.7908 38.1109C60.7908 36.7831 59.7142 35.7065 58.3864 35.7065Z" fill="black"/>
<path d="M83.7936 13.1701C83.7936 14.8029 82.8427 16.3819 80.3845 17.0817L82.7709 19.181C83.1656 19.5399 83.2015 19.8808 82.8785 20.2038L81.5328 21.6572C81.2278 21.9801 80.851 22.016 80.5101 21.711L75.7731 17.3509C72.2922 16.9202 71.0003 15.0721 71.0003 13.1701V4.28837C71.0003 2.13521 72.6869 0 77.388 0C82.0891 0 83.8116 2.13521 83.8116 4.28837V13.1701H83.7936ZM75.1092 12.5421C75.1092 13.6905 76.132 14.1749 77.3701 14.1749C78.5902 14.1749 79.6488 13.6905 79.6488 12.5421V4.91637C79.6488 3.76802 78.5902 3.28356 77.3701 3.28356C76.1499 3.28356 75.1092 3.76802 75.1092 4.91637V12.5421Z" fill="black"/>
<path d="M90.5582 12.4345C90.5582 13.5828 91.5809 14.0673 92.819 14.0673C94.0391 14.0673 95.0977 13.5828 95.0977 12.4345V0.950962C95.0977 0.430616 95.2951 0.197357 95.8334 0.197357H98.5428C99.0631 0.197357 99.2426 0.430616 99.2426 0.950962V13.1701C99.2426 15.3233 97.538 17.4585 92.819 17.4585C88.1 17.4585 86.4313 15.3233 86.4313 13.1701V0.950962C86.4313 0.430616 86.6287 0.197357 87.1669 0.197357H89.8763C90.3967 0.197357 90.5761 0.430616 90.5761 0.950962V12.4345H90.5582Z" fill="black"/>
<path d="M109.685 0.950976L114.225 16.4896C114.368 16.974 114.207 17.2432 113.669 17.2432H110.888C110.367 17.2432 110.134 16.974 110.008 16.4896L109.362 14.0852H105.2L104.554 16.5075C104.428 16.992 104.195 17.2611 103.674 17.2611H101.145C100.624 17.2611 100.445 16.992 100.588 16.5075L105.128 0.968919C105.271 0.466516 105.523 0.215314 106.061 0.215314H108.77C109.291 0.197371 109.542 0.448573 109.685 0.950976ZM108.106 9.47389C107.712 7.94873 107.353 4.44985 107.335 4.23454C107.281 4.5934 106.886 8.0205 106.474 9.47389L106.097 10.8196H108.447L108.106 9.47389Z" fill="black"/>
<path d="M120.146 13.8699H125.062C125.583 13.8699 125.816 14.0493 125.816 14.5697V16.5255C125.816 17.0458 125.583 17.2611 125.062 17.2611H116.629C116.181 17.2611 116.001 17.0099 116.001 16.5075V0.950962C116.001 0.430616 116.199 0.197357 116.737 0.197357H119.446C119.967 0.197357 120.146 0.430616 120.146 0.950962V13.8699Z" fill="black"/>
<path d="M131.953 16.5075C131.953 17.0279 131.773 17.2611 131.253 17.2611H128.543C128.023 17.2611 127.808 17.0279 127.808 16.5075V0.950962C127.808 0.430616 128.005 0.197357 128.543 0.197357H131.253C131.773 0.197357 131.953 0.430616 131.953 0.950962V16.5075Z" fill="black"/>
<path d="M144.979 0.197357C145.5 0.197357 145.733 0.376787 145.733 0.897133V2.85292C145.733 3.39121 145.5 3.58858 144.979 3.58858H141.767V16.5075C141.767 17.0279 141.588 17.2611 141.068 17.2611H138.358C137.838 17.2611 137.623 17.0279 137.623 16.5075V3.58858H134.411C133.89 3.58858 133.657 3.39121 133.657 2.85292V0.897133C133.657 0.376787 133.89 0.197357 134.411 0.197357H144.979Z" fill="black"/>
<path d="M152.497 5.93911C152.695 6.51328 152.892 7.33866 152.928 7.44632C152.946 7.33866 153.197 6.44151 153.43 5.93911L155.53 0.950962C155.709 0.52033 155.888 0.197357 156.409 0.197357H159.064C159.585 0.197357 159.836 0.466502 159.621 0.950962L155.009 10.9273V16.4896C155.009 17.0099 154.83 17.2432 154.309 17.2432H151.6C151.08 17.2432 150.864 17.0099 150.864 16.4896V11.4297L146.217 0.950962C146.02 0.502388 146.217 0.197357 146.738 0.197357H149.788C150.308 0.197357 150.541 0.502388 150.685 0.950962L152.497 5.93911Z" fill="black"/>
<path d="M81.1381 33.3919L83.5963 39.5643C83.7757 40.0128 83.4527 40.3179 82.8965 40.3179H80.1871C79.7027 40.3179 79.6129 39.9231 79.4515 39.5643L77.2445 34.0199H75.3605V39.5643C75.3605 40.0846 75.181 40.3179 74.6607 40.3179H71.9513C71.431 40.3179 71.2156 40.0846 71.2156 39.5643V24.0256C71.2156 23.5053 71.413 23.272 71.9513 23.272H77.3701C82.0891 23.272 83.7398 25.4072 83.7398 27.5604V29.7494C83.7398 31.1669 83.0221 32.6024 81.1381 33.3919ZM75.3605 26.6633V30.6466H77.3701C78.5902 30.6466 79.6488 30.1621 79.6488 29.0138V28.2781C79.6488 27.1298 78.5902 26.6453 77.3701 26.6453H75.3605V26.6633Z" fill="black"/>
<path d="M87.0952 40.3179C86.5748 40.3179 86.3595 40.0846 86.3595 39.5643V24.0256C86.3595 23.5053 86.5569 23.272 87.0952 23.272H95.6719C96.1922 23.272 96.4255 23.4515 96.4255 23.9718V25.9276C96.4255 26.4479 96.1922 26.6633 95.6719 26.6633H90.5043V29.9289H95.2772C95.7975 29.9289 96.0308 30.1083 96.0308 30.6287V32.4588C96.0308 32.9792 95.7975 33.1945 95.2772 33.1945H90.5043V36.9625H95.9231C96.4434 36.9625 96.6767 37.142 96.6767 37.6623V39.6181C96.6767 40.1384 96.4434 40.3537 95.9231 40.3537H87.0952V40.3179Z" fill="black"/>
<path d="M111.874 39.5642C111.874 40.0846 111.695 40.3178 111.175 40.3178H108.716C108.34 40.3178 108.196 40.2102 108.035 39.959L104.015 33.2842C103.585 32.6024 103.208 31.7232 102.939 31.0234V39.5463C102.939 40.0666 102.759 40.2999 102.239 40.2999H99.7808C99.2605 40.2999 99.0452 40.0666 99.0452 39.5463V24.0077C99.0452 23.4873 99.2425 23.2541 99.7808 23.2541H102.239C102.562 23.2541 102.759 23.3617 102.867 23.5591L107.102 30.6645C107.407 31.1849 107.73 31.9385 107.981 32.5485V24.0256C107.981 23.5053 108.178 23.272 108.716 23.272H111.175C111.695 23.272 111.874 23.5053 111.874 24.0256V39.5642Z" fill="black"/>
<path d="M114.638 27.363C114.638 25.2099 116.324 23.0746 121.025 23.0746C125.726 23.0746 127.449 25.2099 127.449 27.363V36.2448C127.449 38.3979 125.744 40.5331 121.025 40.5331C116.306 40.5331 114.638 38.3979 114.638 36.2448V27.363ZM123.304 28.0807C123.304 26.9324 122.245 26.4479 121.025 26.4479C119.805 26.4479 118.765 26.9324 118.765 28.0807V35.5091C118.765 36.6575 119.787 37.1419 121.025 37.1419C122.263 37.1419 123.304 36.6575 123.304 35.5091V28.0807Z" fill="black"/>
<path d="M134.321 40.3179C133.801 40.3179 133.55 40.0667 133.388 39.5643L128.848 24.0256C128.705 23.5412 128.866 23.272 129.405 23.272H132.365C132.886 23.272 133.119 23.5412 133.245 24.0256L135.129 31.0413C135.505 32.4409 135.757 35.1323 135.757 35.1323C135.757 35.1323 136.08 32.4409 136.456 31.0413L138.358 24.0256C138.484 23.5412 138.717 23.272 139.237 23.272H141.947C142.467 23.272 142.647 23.5412 142.503 24.0256L137.964 39.5643C137.82 40.0667 137.569 40.3179 137.03 40.3179H134.321Z" fill="black"/>
<path d="M150.775 24.0256L155.314 39.5643C155.458 40.0487 155.296 40.3179 154.758 40.3179H151.977C151.457 40.3179 151.223 40.0487 151.098 39.5643L150.452 37.1599H146.289L145.643 39.5643C145.517 40.0487 145.284 40.3179 144.764 40.3179H142.234C141.713 40.3179 141.534 40.0487 141.678 39.5643L146.217 24.0256C146.361 23.5232 146.612 23.272 147.15 23.272H149.86C150.362 23.272 150.613 23.5232 150.775 24.0256ZM149.178 32.5485C148.783 31.0234 148.424 27.5245 148.406 27.3092C148.352 27.6681 147.958 31.0952 147.545 32.5485L147.168 33.8943H149.519L149.178 32.5485Z" fill="black"/>
<path d="M165.703 23.272C166.224 23.272 166.457 23.4515 166.457 23.9718V25.9276C166.457 26.4479 166.224 26.6633 165.703 26.6633H162.491V39.5822C162.491 40.1025 162.312 40.3358 161.792 40.3358H159.082C158.562 40.3358 158.347 40.1025 158.347 39.5822V26.6633H155.135C154.615 26.6633 154.381 26.4659 154.381 25.9276V23.9718C154.381 23.4515 154.615 23.272 155.135 23.272H165.703Z" fill="black"/>
<path d="M172.306 39.5643C172.306 40.0846 172.127 40.3179 171.607 40.3179H168.897C168.377 40.3179 168.161 40.0846 168.161 39.5643V24.0256C168.161 23.5053 168.359 23.272 168.897 23.272H171.607C172.127 23.272 172.306 23.5053 172.306 24.0256V39.5643Z" fill="black"/>
<path d="M175.07 27.363C175.07 25.2099 176.756 23.0746 181.457 23.0746C186.158 23.0746 187.881 25.2099 187.881 27.363V36.2448C187.881 38.3979 186.176 40.5331 181.457 40.5331C176.738 40.5331 175.07 38.3979 175.07 36.2448V27.363ZM183.736 28.0807C183.736 26.9324 182.677 26.4479 181.457 26.4479C180.237 26.4479 179.196 26.9324 179.196 28.0807V35.5091C179.196 36.6575 180.219 37.1419 181.457 37.1419C182.677 37.1419 183.736 36.6575 183.736 35.5091V28.0807Z" fill="black"/>
<path d="M203.455 39.5642C203.455 40.0846 203.276 40.3178 202.755 40.3178H200.297C199.921 40.3178 199.777 40.2102 199.615 39.959L195.596 33.2842C195.166 32.6024 194.789 31.7232 194.52 31.0234V39.5463C194.52 40.0666 194.34 40.2999 193.82 40.2999H191.362C190.841 40.2999 190.626 40.0666 190.626 39.5463V24.0077C190.626 23.4873 190.823 23.2541 191.362 23.2541H193.82C194.143 23.2541 194.34 23.3617 194.448 23.5591L198.682 30.6645C198.987 31.1849 199.31 31.9385 199.562 32.5485V24.0256C199.562 23.5053 199.759 23.272 200.297 23.272H202.755C203.276 23.272 203.455 23.5053 203.455 24.0256V39.5642Z" fill="black"/>
<path d="M72.4537 51.3887C72.4537 52.0705 72.9561 52.4832 74.0686 52.4832C75.199 52.4832 75.7193 52.0705 75.7193 51.3887V45.1266C75.7193 44.9471 75.7911 44.8754 75.9526 44.8754H76.7241C76.9036 44.8754 76.9574 44.9471 76.9574 45.1266V51.586C76.9574 52.6088 76.2576 53.5239 74.0865 53.5239C71.9334 53.5239 71.2336 52.6267 71.2336 51.586V45.1266C71.2336 44.9471 71.3054 44.8754 71.4668 44.8754H72.2384C72.3999 44.8754 72.4716 44.9471 72.4716 45.1266V51.3887H72.4537Z" fill="#706F6F"/>
<path d="M82.0891 48.6434C82.0891 48.1948 81.6764 47.9795 80.8869 47.9795C80.1154 47.9795 79.7206 48.1948 79.7206 48.6434V48.8587C79.7206 49.1817 80.0256 49.3611 80.241 49.4329L82.125 50.0788C82.8247 50.3121 83.2554 50.7248 83.2554 51.3169V52.0346C83.2554 52.8061 82.5556 53.5418 80.869 53.5418C79.1644 53.5418 78.5005 52.8061 78.5005 52.0346V51.7116C78.5005 51.5681 78.5543 51.4784 78.7158 51.4784H79.3797C79.5412 51.4784 79.595 51.5501 79.595 51.7116V51.9808C79.595 52.4293 80.0795 52.6447 80.869 52.6447C81.6584 52.6447 82.1429 52.4293 82.1429 51.9808V51.6399C82.1429 51.3348 81.8917 51.1733 81.479 51.0298L79.595 50.3838C79.1285 50.2224 78.6081 49.7379 78.6081 49.1099V48.6434C78.6081 47.8718 79.1823 47.1003 80.8869 47.1003C82.5735 47.1003 83.1657 47.8718 83.1657 48.6434V48.9484C83.1657 49.1099 83.1118 49.1817 82.9324 49.1817H82.2865C82.1429 49.1817 82.0711 49.1099 82.0711 48.9484V48.6434H82.0891Z" fill="#706F6F"/>
<path d="M86.0007 48.4819L86.6107 48.2307C86.7363 48.1768 86.844 48.2127 86.9157 48.3563L87.0234 48.6254C87.0772 48.751 87.0413 48.8587 86.8799 48.9125L85.9827 49.2893V53.1829C85.9827 53.3624 85.9109 53.4341 85.7495 53.4341H85.0497C84.8702 53.4341 84.8164 53.3624 84.8164 53.1829V49.7738L84.2063 50.007C84.0628 50.0788 83.9551 50.025 83.8834 49.8635L83.7757 49.6123C83.7219 49.4867 83.7578 49.3611 83.9013 49.3073L84.7985 48.9484V44.8753C84.7985 44.6959 84.8702 44.6241 85.0317 44.6241H85.7674C85.9289 44.6241 86.0007 44.6959 86.0007 44.8753V48.4819Z" fill="#706F6F"/>
<path d="M91.6347 52.8241C91.2938 53.1112 90.6479 53.5418 89.6251 53.5418C88.4768 53.5418 87.8488 52.8779 87.8488 51.9449V47.4592C87.8488 47.2797 87.9205 47.2079 88.082 47.2079H88.8177C88.9792 47.2079 89.0509 47.2797 89.0509 47.4592V51.6399C89.0509 52.1602 89.2842 52.4652 89.984 52.4652C90.7735 52.4652 91.3476 52.0525 91.6168 51.8372V47.4592C91.6168 47.2797 91.6886 47.2079 91.85 47.2079H92.5857C92.7472 47.2079 92.819 47.2797 92.819 47.4592V53.2009C92.819 53.3803 92.7472 53.4342 92.5857 53.4342H91.9039C91.7244 53.4342 91.6706 53.3624 91.6706 53.2009L91.6347 52.8241Z" fill="#706F6F"/>
<path d="M94.4518 51.8193V48.8049C94.4518 47.7821 95.008 47.1003 96.2281 47.1003C97.2688 47.1003 97.9686 47.5668 98.3095 47.8539L98.3275 47.4591C98.3454 47.2797 98.3992 47.2079 98.5607 47.2079H99.2246C99.404 47.2079 99.4579 47.2797 99.4579 47.4591V54.2775C99.4579 55.3002 98.7401 56 96.9638 56H95.2233C95.0439 56 94.9721 55.9282 94.9721 55.7667V55.2464C94.9721 55.0849 95.0439 55.0131 95.2233 55.0131H96.9638C97.9148 55.0131 98.2557 54.7081 98.2557 54.1698V52.842C97.8789 53.1112 97.215 53.5418 96.1922 53.5418C95.008 53.5418 94.4518 52.86 94.4518 51.8193ZM95.636 51.6399C95.636 52.0884 95.8513 52.4652 96.569 52.4652C97.3585 52.4652 98.0045 52.0167 98.2736 51.8193V48.8407C98.0045 48.6254 97.3585 48.1948 96.569 48.1948C95.8513 48.1948 95.636 48.5716 95.636 49.0202V51.6399Z" fill="#706F6F"/>
<path d="M102.454 46.0237C102.454 46.1852 102.383 46.257 102.221 46.257H101.485C101.306 46.257 101.252 46.1852 101.252 46.0237V44.8933C101.252 44.7139 101.324 44.6421 101.485 44.6421H102.221C102.383 44.6421 102.454 44.7139 102.454 44.8933V46.0237ZM102.454 53.1829C102.454 53.3624 102.383 53.4341 102.221 53.4341H101.485C101.306 53.4341 101.252 53.3624 101.252 53.1829V47.4591C101.252 47.2797 101.324 47.2079 101.485 47.2079H102.221C102.383 47.2079 102.454 47.2797 102.454 47.4591V53.1829Z" fill="#706F6F"/>
<path d="M107.245 53.4341C107.084 53.4341 107.012 53.3624 107.012 53.1829V45.1445C107.012 44.9651 107.084 44.8933 107.245 44.8933H109.47C111.623 44.8933 112.323 45.7007 112.323 46.7235V47.513C112.323 48.1589 112.018 48.6613 111.264 48.9663C112.215 49.2355 112.682 49.7738 112.682 50.4915V51.5501C112.682 52.5729 111.982 53.4341 109.829 53.4341H107.245ZM108.25 45.8981V48.5536H109.578C110.618 48.5536 111.121 48.1589 111.121 47.4591V46.8849C111.121 46.1852 110.618 45.8981 109.488 45.8981H108.25ZM108.25 49.5226V52.4114H109.847C110.977 52.4114 111.48 52.0166 111.48 51.3348V50.5633C111.48 49.9353 110.977 49.5226 109.847 49.5226H108.25Z" fill="#706F6F"/>
<path d="M117.957 52.8241C117.616 53.1112 116.97 53.5418 115.947 53.5418C114.799 53.5418 114.171 52.8779 114.171 51.9449V47.4592C114.171 47.2797 114.243 47.2079 114.404 47.2079H115.14C115.301 47.2079 115.373 47.2797 115.373 47.4592V51.6399C115.373 52.1602 115.607 52.4652 116.306 52.4652C117.096 52.4652 117.67 52.0525 117.939 51.8372V47.4592C117.939 47.2797 118.011 47.2079 118.172 47.2079H118.908C119.07 47.2079 119.141 47.2797 119.141 47.4592V53.2009C119.141 53.3803 119.07 53.4342 118.908 53.4342H118.226C118.047 53.4342 117.993 53.3624 117.993 53.2009L117.957 52.8241Z" fill="#706F6F"/>
<path d="M124.632 52.8061C124.273 53.0753 123.591 53.5418 122.55 53.5418C121.33 53.5418 120.774 52.86 120.774 51.8372V48.8049C120.774 47.7821 121.33 47.1003 122.55 47.1003C123.573 47.1003 124.237 47.5489 124.614 47.818V44.9112C124.614 44.7318 124.668 44.66 124.847 44.66H125.583C125.762 44.66 125.816 44.7318 125.816 44.9112V53.2009C125.816 53.3803 125.744 53.4521 125.583 53.4521H124.919C124.74 53.4521 124.686 53.3803 124.686 53.2009L124.632 52.8061ZM121.976 51.6398C121.976 52.0884 122.192 52.4652 122.909 52.4652C123.699 52.4652 124.345 52.0166 124.614 51.8193V48.8407C124.345 48.6254 123.699 48.1948 122.909 48.1948C122.192 48.1948 121.976 48.5716 121.976 49.0202V51.6398Z" fill="#706F6F"/>
<path d="M127.449 48.8228C127.449 47.8001 128.185 47.1003 129.961 47.1003C131.737 47.1003 132.473 47.8001 132.473 48.8228V51.8193C132.473 52.842 131.737 53.5418 129.961 53.5418C128.185 53.5418 127.449 52.86 127.449 51.8193V48.8228ZM131.271 48.9305C131.271 48.3922 130.894 48.0871 129.943 48.0871C129.01 48.0871 128.615 48.3922 128.615 48.9305V51.7116C128.615 52.2499 128.992 52.5549 129.943 52.5549C130.894 52.5549 131.271 52.2499 131.271 51.7116V48.9305Z" fill="#706F6F"/>
<path d="M139.901 53.2009C139.847 53.3623 139.812 53.4341 139.65 53.4341H138.789C138.627 53.4341 138.574 53.3623 138.538 53.2009L137.587 49.4867C137.533 49.2893 137.461 48.9125 137.461 48.8587L137.318 49.4867L136.241 53.2009C136.205 53.3444 136.169 53.4341 136.008 53.4341H135.146C134.985 53.4341 134.931 53.3623 134.895 53.2009L133.334 47.4412C133.28 47.2797 133.406 47.19 133.567 47.19H134.267C134.429 47.19 134.5 47.2976 134.536 47.4412L135.577 51.3527C135.631 51.5681 135.667 51.8731 135.685 51.909L135.828 51.3527L136.905 47.4412C136.941 47.2976 137.012 47.19 137.174 47.19H137.91C138.071 47.19 138.143 47.2976 138.179 47.4412L139.166 51.3527C139.237 51.6578 139.273 51.8551 139.273 51.891C139.273 51.8551 139.345 51.5322 139.399 51.3527L140.44 47.4412C140.475 47.2976 140.547 47.19 140.709 47.19H141.319C141.48 47.19 141.588 47.2797 141.534 47.4412L139.901 53.2009Z" fill="#706F6F"/>
<path d="M143.795 53.1829C143.795 53.3624 143.723 53.4341 143.562 53.4341H142.826C142.647 53.4341 142.593 53.3624 142.593 53.1829V44.8933C142.593 44.7139 142.664 44.6421 142.826 44.6421H143.562C143.723 44.6421 143.795 44.7139 143.795 44.8933V53.1829Z" fill="#706F6F"/>
<path d="M145.535 48.8049C145.535 47.8001 146.181 47.1003 147.904 47.1003C149.68 47.1003 150.272 47.8001 150.272 48.8049V53.1829C150.272 53.3624 150.201 53.4342 150.039 53.4342H149.393C149.214 53.4342 149.16 53.3624 149.16 53.1829L149.142 52.8241C148.783 53.1112 148.119 53.5418 147.15 53.5418C145.984 53.5418 145.374 52.842 145.374 52.0167V51.4066C145.374 50.5812 145.948 49.8814 147.114 49.8814H149.106V48.9125C149.106 48.3922 148.837 48.0513 147.886 48.0513C146.935 48.0513 146.648 48.3563 146.648 48.8766V48.9843C146.648 49.1637 146.576 49.2355 146.415 49.2355H145.769C145.607 49.2355 145.535 49.1637 145.535 48.9843V48.8049ZM149.106 51.909V50.8324H147.366C146.738 50.8324 146.54 51.1016 146.54 51.604V51.8552C146.54 52.3396 146.809 52.5549 147.437 52.5549C148.227 52.537 148.819 52.1243 149.106 51.909Z" fill="#706F6F"/>
<path d="M152.892 47.2079C153.071 47.2079 153.125 47.2797 153.125 47.4412L153.143 47.8359C153.502 47.5309 154.184 47.1003 155.225 47.1003C156.391 47.1003 157.001 47.7821 157.001 48.7151V53.1829C157.001 53.3624 156.929 53.4341 156.768 53.4341H156.032C155.871 53.4341 155.799 53.3624 155.799 53.1829V49.0022C155.799 48.4819 155.566 48.1769 154.866 48.1769C154.058 48.1769 153.43 48.6075 153.161 48.8228V53.2009C153.161 53.3803 153.089 53.4521 152.928 53.4521H152.192C152.013 53.4521 151.959 53.3803 151.959 53.2009V47.4591C151.959 47.2977 152.031 47.2259 152.192 47.2259H152.892V47.2079Z" fill="#706F6F"/>
<path d="M163.389 50.348C163.389 50.4915 163.317 50.5812 163.173 50.5812H159.764V51.7296C159.764 52.2499 160.015 52.5729 161.02 52.5729C162.025 52.5729 162.276 52.2499 162.276 51.7296V51.586C162.276 51.4245 162.348 51.3528 162.509 51.3528H163.155C163.317 51.3528 163.389 51.4245 163.389 51.586V51.8013C163.389 52.8241 162.779 53.5239 160.984 53.5239C159.19 53.5239 158.58 52.842 158.58 51.8013V48.8049C158.58 47.7821 159.226 47.0823 161.002 47.0823C162.779 47.0823 163.371 47.7821 163.371 48.8049V50.348H163.389ZM159.746 49.6841H162.258V48.8946C162.258 48.3922 161.953 48.0513 161.002 48.0513C160.051 48.0513 159.746 48.3922 159.746 48.8946V49.6841Z" fill="#706F6F"/>
</g>
<defs>
<clipPath id="clip0">
<rect width="203.455" height="56" fill="white"/>
</clipPath>
</defs>
</svg>
